<mxfile host="app.diagrams.net" modified="2023-08-02T22:32:53.443Z" agent="Mozilla/5.0 (Windows NT 10.0; Win64; x64) AppleWebKit/537.36 (KHTML, like Gecko) Chrome/117.0.0.0 Safari/537.36" version="21.6.6" etag="rR49o8_OgTTTDM-xztrE" type="github">
  <diagram name="Page-1" id="D0qJZ82C-_BiG7EEF1r7">
    <mxGraphModel>
      <root>
        <mxCell id="0" />
        <mxCell id="1" parent="0" />
      </root>
    </mxGraphModel>
  </diagram>
</mxfile>
